PathFileType	4	(X/Y/Z)	Run_200 01
DataRate	CameraRate	NumFrames	NumMarkers	Units	OrigDataRate	OrigDataStartFrame	OrigNumFrames
120	120	6	42	mm	120	96	128
Frame#	Time	LASI			RASI			LPSI			RPSI			RTH1			RTH2			RTH3			LTH1			LTH2			LTH3			RTB2			RTB3			LTB1			LTB2			LTB3			RCAL			RTOE			RMT5			LCAL			LTOE			LMT5			LACR			RACR			CLAV			C7			RUA1			RUA2			RUA3			RLEL			RMEL			LUA1			LUA2			LUA3			LLEL			LMEL			RFAsuperior			RFAradius			RFAulna			LFAsuperior			LFAradius			LFAulna			RTB1		
		X1	Y1	Z1	X2	Y2	Z2	X3	Y3	Z3	X4	Y4	Z4	X5	Y5	Z5	X6	Y6	Z6	X7	Y7	Z7	X8	Y8	Z8	X9	Y9	Z9	X10	Y10	Z10	X11	Y11	Z11	X12	Y12	Z12	X13	Y13	Z13	X14	Y14	Z14	X15	Y15	Z15	X16	Y16	Z16	X17	Y17	Z17	X18	Y18	Z18	X19	Y19	Z19	X20	Y20	Z20	X21	Y21	Z21	X22	Y22	Z22	X23	Y23	Z23	X24	Y24	Z24	X25	Y25	Z25	X26	Y26	Z26	X27	Y27	Z27	X28	Y28	Z28	X29	Y29	Z29	X30	Y30	Z30	X31	Y31	Z31	X32	Y32	Z32	X33	Y33	Z33	X34	Y34	Z34	X35	Y35	Z35	X36	Y36	Z36	X37	Y37	Z37	X38	Y38	Z38	X39	Y39	Z39	X40	Y40	Z40	X41	Y41	Z41	X42	Y42	Z42	

96	  0.800000	488.294694	1016.201184	-457.696073	486.148615	1031.528183	-215.069396	318.679537	1046.207798	-369.992130	319.470469	1049.350532	-283.230435	510.309366	866.390921	-165.701306	614.497663	783.363975	-197.328505	590.786186	641.302557	-188.023137	424.476893	872.743686	-495.223561	453.031414	753.628141	-472.054883	348.592888	633.876126	-460.548492	553.706496	400.495422	-187.578708	515.878653	292.224422	-252.076799	332.649144	390.573277	-388.028849	256.071265	306.148174	-437.776074	245.784138	220.863671	-365.660327	355.189282	229.859714	-261.043669	538.212097	108.359748	-251.018829	494.316692	112.918952	-161.472621	 96.518542	142.269884	-365.311264	301.354631	 71.982449	-367.308589	265.024860	 61.297624	-451.600202	485.741805	1465.100942	-511.480231	438.000991	1473.291149	-132.819646	552.091186	1439.606422	-281.037001	432.508764	1533.196604	-327.317896	383.428114	1382.164942	-71.586684	383.866709	1310.953233	-67.445694	279.775923	1323.009836	-50.754438	281.383066	1237.966306	 -7.074922	237.461700	1223.230867	-84.980480	464.773279	1390.692082	-568.484376	395.733785	1332.023619	-574.877404	457.888002	1298.493089	-609.221589	437.547156	1196.681275	-653.942426	376.260195	1157.926679	-597.727583	357.862411	1204.664043	-18.122061	497.683499	1151.974652	-90.283148	460.616950	1095.112402	-86.087753	502.550157	1198.488269	-622.720299	610.239048	1188.511581	-483.615120	619.119097	1130.168851	-511.933143	618.275310	439.275334	-242.964023	
97	  0.808333	489.899267	1018.746949	-456.435286	486.499123	1035.929353	-216.121301	320.193973	1050.074368	-370.503225	320.592880	1053.716696	-283.824536	511.851038	871.260652	-165.450609	614.446960	786.521244	-197.743740	588.940367	643.889588	-188.714326	423.767041	875.265928	-494.292279	449.859788	756.198698	-470.979709	342.287265	639.024585	-459.752489	562.050274	397.872850	-188.053177	530.942682	287.468962	-253.169942	323.074909	395.888026	-388.151979	245.690859	312.534418	-438.200434	235.045210	226.693193	-366.378133	374.604010	213.851587	-262.796149	566.016961	106.210756	-251.068076	521.709536	108.149606	-161.874152	 85.262417	151.077614	-365.169703	286.838573	 71.854544	-367.709526	249.402002	 61.961492	-451.452190	488.465546	1469.502339	-509.511406	436.216625	1476.871063	-131.647816	551.499979	1443.543636	-278.195225	432.724396	1536.790011	-326.066052	381.258716	1386.535284	-70.185320	381.554556	1315.224795	-65.719057	277.443815	1327.837875	-49.502220	278.113599	1243.188048	 -5.604556	234.737856	1228.166019	-83.903518	467.754088	1395.809121	-566.936598	398.027160	1338.268423	-574.885356	460.220472	1303.761054	-608.100724	439.247112	1202.133377	-653.247349	376.875069	1163.859698	-597.876585	354.665840	1210.154092	-15.291862	495.290106	1157.358670	-86.101842	458.614444	1100.327227	-81.466198	503.981537	1204.000172	-621.548723	609.006410	1194.507955	-479.988821	618.294910	1136.222569	-507.993919	623.944096	440.824229	-243.282016	
98	  0.816667	491.402415	1021.327122	-455.048605	487.309046	1039.845930	-216.952457	321.729124	1053.745807	-370.694901	322.171191	1057.612254	-284.175298	512.960566	875.060583	-165.176306	613.934422	788.547312	-197.988452	586.314014	645.515588	-189.158764	423.082713	878.012644	-493.321331	447.295707	758.862274	-470.555127	337.546412	643.714285	-459.291670	569.690230	394.910881	-188.193451	545.226427	282.794342	-253.989084	315.210565	400.622540	-388.650433	236.529290	318.532668	-438.581559	225.290802	232.310841	-367.179063	393.770176	198.291736	-263.713495	592.641190	105.236823	-252.072755	548.773717	103.997790	-162.940564	 74.936234	160.419305	-364.987042	272.422680	 71.797208	-368.055219	234.026159	 62.864971	-451.464536	491.197679	1473.422772	-507.598663	434.516435	1480.041272	-130.522332	550.982425	1447.033080	-275.454608	432.996284	1540.124900	-324.905421	379.341811	1390.416842	-68.729752	379.564374	1318.970835	-64.038487	275.465104	1331.995504	-48.083468	275.377168	1247.693573	 -4.025566	232.436222	1232.392024	-82.616260	470.633998	1400.467205	-565.456973	400.049373	1344.076287	-574.762359	462.131815	1308.634648	-607.038036	440.423507	1207.208068	-652.657261	377.015093	1169.437169	-598.002149	351.980165	1214.951016	-12.528012	493.341149	1162.056601	-82.083055	457.066874	1104.954526	-76.898701	505.059665	1209.076178	-620.783513	607.472703	1199.943875	-476.801334	617.076469	1141.602453	-504.500004	628.568561	441.742915	-243.372132	
99	  0.825000	492.736935	1023.970297	-453.615265	488.289768	1043.389319	-217.338716	323.267369	1057.187390	-370.507280	323.970689	1061.100044	-284.021055	513.561826	877.594749	-164.852695	613.016507	789.382030	-198.137166	583.029101	646.200893	-189.319772	422.497251	880.944131	-492.475181	445.452976	761.503489	-470.818847	334.434208	647.690455	-459.095696	576.417037	391.736473	-187.962428	558.599019	278.263657	-254.385466	309.130838	404.470565	-389.414968	228.590869	323.957236	-438.918900	216.537533	237.518863	-368.015390	412.416615	183.409952	-263.654334	617.744198	105.421316	-254.130701	575.141916	100.462972	-164.692850	 65.538030	170.213647	-364.758711	258.207803	 71.879240	-368.292609	218.932117	 64.087750	-451.590021	493.795041	1476.850850	-505.700996	432.954829	1482.689103	-129.483318	550.544529	1450.070971	-272.832061	433.310127	1543.143439	-323.755368	377.711716	1393.797207	-67.224149	377.966374	1322.209508	-62.283671	273.860949	1335.458406	-46.504802	273.192653	1251.458481	 -2.333869	230.675411	1235.871356	-81.146591	473.242868	1404.627342	-564.018034	401.763427	1349.349783	-574.386849	463.648548	1313.059694	-606.048819	441.064387	1211.853687	-652.104229	376.626228	1174.617777	-598.009970	349.827694	1219.013120	 -9.791155	491.948006	1166.069839	-77.979795	456.076521	1108.989267	-72.440079	505.684663	1213.615945	-620.190760	605.678536	1204.699224	-474.025145	615.523483	1146.236545	-501.436069	632.088320	442.037608	-243.245784	
100	  0.833333	493.884666	1026.761640	-452.131256	489.050317	1046.707246	-217.160334	324.730219	1060.333155	-369.906769	325.636940	1064.284660	-283.248714	513.691194	878.880543	-164.395643	611.710254	789.047977	-198.209628	579.219232	645.979720	-189.207469	422.105116	883.845484	-491.789044	444.428471	763.992663	-471.658949	332.959424	650.787671	-459.145961	582.007760	388.458611	-187.451051	570.925755	273.964549	-254.322890	304.805985	407.273797	-390.349693	221.928456	328.742455	-439.280979	208.750784	242.247467	-368.848641	430.313828	169.441315	-262.700172	640.919732	106.581781	-257.074489	600.339608	 97.555059	-167.062180	 57.006480	180.349812	-364.445667	244.280907	 72.186209	-368.450293	204.042147	 65.673373	-451.705660	496.142524	1479.779910	-503.790791	431.621728	1484.749049	-128.501651	550.171741	1452.651221	-270.345944	433.644669	1545.760088	-322.551471	376.413310	1396.642750	-65.685351	376.825295	1324.946016	-60.333099	272.658158	1338.212073	-44.802189	271.589212	1254.479636	 -0.526345	229.564647	1238.576602	-79.521352	475.430210	1408.246811	-562.585545	403.114142	1354.015160	-573.675853	464.752000	1317.005833	-605.120025	441.163612	1216.021196	-651.519936	375.782288	1179.348222	-597.858751	348.240401	1222.317722	 -7.032811	491.209706	1169.412068	-73.586360	455.649073	1112.363370	-68.082891	505.777871	1217.534356	-619.541571	603.670264	1208.642873	-471.600043	613.683752	1150.069809	-498.757561	634.532976	441.760532	-242.929286	
101	  0.841667	494.861082	1029.749179	-450.562320	489.431719	1049.764727	-216.409259	326.036085	1063.092858	-368.905069	326.950821	1067.171069	-281.947322	513.454049	879.107763	-163.705649	609.976817	787.662169	-198.156045	574.995223	644.891660	-188.861701	422.007520	886.445531	-491.170069	444.272399	766.195872	-472.840393	333.108786	652.917716	-459.449706	586.322715	385.120009	-186.852492	582.026542	269.979504	-253.944827	302.103017	409.018669	-391.417800	216.570515	332.890725	-439.712836	201.839117	246.532656	-369.617692	447.191987	156.599371	-261.195502	661.739930	108.414958	-260.536806	623.767761	 95.293757	-169.860409	 49.279298	190.704978	-363.966972	230.679994	 72.785251	-368.626659	189.230050	 67.647892	-451.682551	498.164386	1482.187369	-501.866720	430.603976	1486.197808	-127.505525	549.842137	1454.744105	-268.023743	433.978128	1547.881026	-321.257586	375.482864	1398.900772	-64.127185	376.164883	1327.160157	-58.132094	271.871775	1340.236316	-43.037899	270.580289	1256.752062	  1.396827	229.122455	1240.468995	-77.754341	477.087965	1411.295097	-561.142522	404.041154	1358.014815	-572.627560	465.390430	1320.446313	-604.194985	440.734584	1219.653101	-650.859040	374.570529	1183.565882	-597.532461	347.238553	1224.853868	 -4.232743	491.140659	1172.068744	-68.898260	455.702866	1114.970864	-63.763751	505.333850	1220.780137	-618.733121	601.500141	1211.679207	-469.456348	611.591159	1153.058001	-496.403712	636.006373	440.998938	-242.482395	
